# xmcd
#
# Track frame offsets: 
#        150
#        7462
#        19184
#        35189
#        46178
#        54987
#        68062
#        75636
#        86330
#        97915
#        112766
#        123728
#        132373
#        147664
#        156918
#
# Disc length: 2263 seconds
#
# Revision: 0
# Processed by: cddbd v1.5.2PL0 Copyright (c) Steve Scherf et al.
# Submitted via: ExactAudioCopy v0.99pb5
#
DISCID=ca08d50f
DTITLE=The Atomic Duo - Silas Lowe and Mark Rubin - Fat Man and Little B
DTITLE=oy
DYEAR=2010
DGENRE=Blues
TTITLE0=Easy Winner
TTITLE1=Turpentine Farm
TTITLE2=Mississippi Delta Blues
TTITLE3=Going to Germany
TTITLE4=Take These Lips Away
TTITLE5=Rope Stretchin' Blues
TTITLE6=Tanner's Rag
TTITLE7=I'll Take My Old Guitar
TTITLE8=The Memory of Your Smile
TTITLE9=Mother's Not Dead
TTITLE10=Sittin' On Top of The World
TTITLE11=Mineola Rag
TTITLE12=Milwaukee Blues
TTITLE13=After the Ball
TTITLE14=Blues in a Bottle
EXTD=
EXTT0=
EXTT1=
EXTT2=
EXTT3=
EXTT4=
EXTT5=
EXTT6=
EXTT7=
EXTT8=
EXTT9=
EXTT10=
EXTT11=
EXTT12=
EXTT13=
EXTT14=
PLAYORDER=
